<?xml version="1.0" encoding="UTF-8"?>
<!DOCTYPE svg PUBLIC "-//W3C//DTD SVG 1.1//EN" "http://www.w3.org/Graphics/SVG/1.1/DTD/svg11.dtd">
<!-- Creator: CorelDRAW X7 -->
<svg xmlns="http://www.w3.org/2000/svg" xml:space="preserve" width="19.9812mm" height="16.5946mm" version="1.1" style="shape-rendering:geometricPrecision; text-rendering:geometricPrecision; image-rendering:optimizeQuality; fill-rule:evenodd; clip-rule:evenodd"
viewBox="0 0 1998 1659"
 xmlns:xlink="http://www.w3.org/1999/xlink">
 <defs>
  <style type="text/css">
   <![CDATA[
    .str0 {stroke:#CA00BA;stroke-width:100.39}
    .fil1 {fill:none}
    .fil0 {fill:white}
   ]]>
  </style>
 </defs>
 <g id="Layer_x0020_1">
  <metadata id="CorelCorpID_0Corel-Layer"/>
  <g id="_1637138830368">
   <path class="fil0" d="M1366 828l-46 49c-11,12 -31,31 -41,43 -7,9 -16,15 -24,24l-29 31c-7,9 -16,16 -23,24 -3,3 -3,4 -6,7 -2,2 -4,3 -6,6 -4,4 -8,8 -12,12l-29 30c-3,3 -3,4 -6,7l-47 48c-3,3 -3,4 -6,7l-17 18c-5,4 -8,8 -12,12l-18 18c-3,3 -3,4 -6,7 -7,8 -17,16 -23,24 -9,12 -21,18 -32,19l-5 0c-17,-2 -32,-15 -32,-37 0,-22 23,-34 35,-48l24 -25c3,-3 5,-6 8,-10 7,-6 13,-12 19,-18l129 -134c3,-4 5,-7 8,-10l19 -19c4,-4 5,-6 9,-10 8,-7 16,-15 23,-23 4,-6 10,-10 14,-16l-1234 0 0 -70 1234 0c-1,-6 -13,-15 -18,-20l-36 -38c-8,-8 -16,-16 -23,-24l-106 -110c-5,-7 -12,-13 -18,-19l-59 -62c-2,-2 -3,-3 -5,-5 -4,-4 -6,-6 -10,-10 -26,-25 -10,-63 24,-63 18,0 31,18 42,30l35 36c7,10 16,16 24,25l58 61c17,19 37,36 53,55 7,9 17,16 24,25 2,3 3,3 6,6l23 24c7,9 17,16 24,25 7,9 15,16 23,24l12 13c6,5 12,11 18,18l41 43z"/>
   <circle class="fil1 str0" cx="1169" cy="830" r="825"/>
  </g>
 </g>
</svg>
